<?xml version="1.0" encoding="utf-8"?>
<!-- Generator: Adobe Illustrator 28.4.1, SVG Export Plug-In . SVG Version: 6.00 Build 0)  -->
<svg version="1.1" id="Layer_1" xmlns="http://www.w3.org/2000/svg" xmlns:xlink="http://www.w3.org/1999/xlink" x="0px" y="0px"
	 viewBox="0 0 1080 1080" style="enable-background:new 0 0 1080 1080;" xml:space="preserve">
<style type="text/css">
	.st0{fill:#1B3E9E;}
</style>
<g>
	<g>
		<g>
			<path class="st0" d="M540,23c-8.1,0-16.1,0.2-24.1,0.6c4.1,5.9,6.5,13,6.5,20.7v455.5l-48.7-261.2c-4.2-23.7-31.7-41.9-63.9-41.9
				H281.5V92.2C127,181.6,23,348.7,23,540c0,285.5,231.5,517,517,517c8.1,0,16.1-0.2,24.1-0.6c-4.1-5.9-6.6-13-6.6-20.7V578.1
				l49.1,263.3c4.2,23.7,31.7,41.9,63.9,41.9h128.3v104.3C953.1,898.2,1057,731.2,1057,540C1057,254.5,825.5,23,540,23z
				 M214.6,229.3c3-3.4,7.2-6.3,12.3-8.5c5.1-1.7,11-3,17.8-3h165.1c21.2,0,40.6,11,43.2,24.6l56.3,304l-13.5-16.1l-92.3-110.9
				c-16.1-18.6-59.7-19.5-68.6-19.5h-94.4l-29.2-158.7C210.4,236.9,211.6,232.7,214.6,229.3z M510.5,585.3v0.4
				c-0.9,0.4-1.3,0.8-2.5,1.7l-0.4,0.4c-0.4,0-0.9,0.4-1.7,0.9c-5.5,2.1-15.2,3.8-27.5,3.8H309.8c-3,0-5.5,0-8-0.4h-5.5
				c-2.1-0.4-4.2-0.4-5.9-0.8c-1.7,0-3.4-0.4-5.1-0.9c-1.7,0-3-0.4-4.2-0.4c-1.7-0.4-3-0.9-4.2-0.9c-2.1-0.8-4.2-1.3-6.3-1.7
				c-5.9-2.1-10.6-4.7-12.7-6.8L134.6,432.9c-5.5-6.8,8.9-11.9,32.2-11.9h168.1c23.3,0,46.6,5.1,52.1,11.9l123.2,147.7
				C511.3,582.3,511.8,583.6,510.5,585.3z M865.7,850.7c-3,3.4-7.2,6.3-12.3,8.5c-5.1,1.7-11,3-17.8,3H670.5
				c-21.6,0-41.1-11-43.2-24.6l-56.7-304.4l14,16.5l92.3,110.9c15.7,18.6,59.7,19.5,68.2,19.5h94.4l29.6,158.7
				C869.9,843.1,868.6,846.9,865.7,850.7z M913.5,659H745c-23.3,0-46.1-5.1-52.1-11.9L570.2,499.4c-1.7-1.7-1.7-3-0.8-4.7l0.4-0.4
				c0.4-0.4,1.3-1.3,2.5-1.7l0.4-0.4c0.4,0,0.9-0.4,1.3-0.9c5.9-2.1,15.7-3.8,27.9-3.8h168.5c2.5,0,5.1,0,8,0.4h5.5
				c2.1,0.4,3.8,0.4,5.9,0.8c1.7,0,3.4,0.4,5.1,0.9c1.3,0,3,0.4,4.2,0.4c1.3,0.4,2.5,0.9,4.2,0.9c2.1,0.8,4.2,1.3,5.9,1.7
				c6.3,2.1,11,4.7,13.1,6.8l122.8,147.7C951.2,653.9,936.8,659,913.5,659z"/>
		</g>
	</g>
</g>
</svg>
